<?xml version="1.0" encoding="UTF-8"?>
<svg xmlns="http://www.w3.org/2000/svg" viewBox="-28 0 472 400" width="400" height="400">
  <rect x="-28" y="0" width="500" height="400" fill="#ffffff"/>
  <title>5 Dimensions Radar</title>
  <g fill="none" stroke="#d0d0d0" stroke-width="0.8">
    <circle cx="200" cy="200" r="30"/>
    <circle cx="200" cy="200" r="60"/>
    <circle cx="200" cy="200" r="90"/>
    <circle cx="200" cy="200" r="120"/>
  </g>
  <circle cx="200" cy="200" r="150" fill="none" stroke="#000000" stroke-width="2"/>
  <g stroke="#d0d0d0" stroke-width="0.8">
    <line x1="200" y1="200" x2="200" y2="50"/>
    <line x1="200" y1="200" x2="314" y2="162"/>
    <line x1="200" y1="200" x2="271" y2="297"/>
    <line x1="200" y1="200" x2="129" y2="297"/>
    <line x1="200" y1="200" x2="58" y2="154"/>
  </g>
  <text x="200" y="202" text-anchor="middle" font-size="11" fill="#000">0</text>
  <text x="200" y="170" text-anchor="middle" font-size="11" fill="#000">1</text>
  <text x="200" y="140" text-anchor="middle" font-size="11" fill="#000">2</text>
  <text x="200" y="110" text-anchor="middle" font-size="11" fill="#000">3</text>
  <text x="200" y="80" text-anchor="middle" font-size="11" fill="#000">4</text>
  <text x="200" y="50" text-anchor="middle" font-size="11" fill="#000">5</text>
  <polygon points="200,50 343,154 288,321 112,321 57,154" fill="#87ceeb" fill-opacity="0.45" stroke="#4169e1" stroke-width="2"/>
  <circle cx="200" cy="50" r="3" fill="#4169e1"/>
  <circle cx="343" cy="154" r="3" fill="#4169e1"/>
  <circle cx="288" cy="321" r="3" fill="#4169e1"/>
  <circle cx="112" cy="321" r="3" fill="#4169e1"/>
  <circle cx="57" cy="154" r="3" fill="#4169e1"/>
  <rect x="98" y="19" width="204" height="16" fill="#ffffff" stroke="#e0e0e0" stroke-width="0.5" rx="2"/>
  <text x="200" y="30" text-anchor="middle" font-size="11" fill="#000">意圖解析與拆解</text>
  <rect x="318" y="149" width="132" height="16" fill="#ffffff" stroke="#e0e0e0" stroke-width="0.5" rx="2"/>
  <text x="384" y="160" text-anchor="middle" font-size="11" fill="#000">審美轉譯與內涵</text>
  <rect x="218" y="309" width="132" height="16" fill="#ffffff" stroke="#e0e0e0" stroke-width="0.5" rx="2"/>
  <text x="284" y="320" text-anchor="middle" font-size="11" fill="#000">溝通效率與迭代</text>
  <rect x="50" y="309" width="132" height="16" fill="#ffffff" stroke="#e0e0e0" stroke-width="0.5" rx="2"/>
  <text x="116" y="320" text-anchor="middle" font-size="11" fill="#000">環境預見與判斷</text>
  <rect x="-22" y="149" width="132" height="16" fill="#ffffff" stroke="#e0e0e0" stroke-width="0.5" rx="2"/>
  <text x="44" y="160" text-anchor="middle" font-size="11" fill="#000">生字內化與演化</text>
  <rect x="108" y="373" width="184" height="20" fill="#ffffff" stroke="#e0e0e0" stroke-width="0.5" rx="2"/>
  <text x="200" y="387" text-anchor="middle" font-size="12" font-weight="bold" fill="#000">連浡崴_平靜 (5-5-5-5-5)</text>
</svg>